{"accessors" : [{"bufferView" : 0, "byteOffset" : 0, "componentType" : 5123, "count" : 37758, "type" : "SCALAR", "max" : [35009], "min" : [0]}, {"bufferView" : 1, "byteOffset" : 0, "componentType" : 5126, "count" : 35010, "type" : "VEC3", "max" : [2.3622050285339355, 2.3622050285339355, 0.6316930055618286], "min" : [-2.3622050285339355, -2.3622050285339355, 0], "name" : "POSITION"}, {"bufferView" : 1, "byteOffset" : 12, "componentType" : 5126, "count" : 35010, "type" : "VEC3", "max" : [1.0000044107437134, 1.0000044107437134, 1.0000044107437134], "min" : [-1.0000044107437134, -1.0000044107437134, -1.0000044107437134], "name" : "NORMAL"}, {"bufferView" : 1, "byteOffset" : 24, "componentType" : 5126, "count" : 35010, "type" : "VEC3", "max" : [0.9607843160629272, 0.9607843160629272, 0.9607843160629272], "min" : [0.2862745225429535, 0.2862745225429535, 0.2862745225429535], "name" : "COLOR_0"}], "asset" : {"generator" : "Aspose.3D 23.2", "version" : "2.0"}, "buffers" : [{"uri" : "data:application/octet-stream;base64,", "byteLength" : 1434812}], "bufferViews" : [{"buffer" : 0, "byteOffset" : 0, "byteLength" : 75516, "target" : 34963}, {"buffer" : 0, "byteOffset" : 75520, "byteLength" : 1359288, "byteStride" : 36, "target" : 34962}], "materials" : [{"pbrMetallicRoughness" : {"baseColorFactor" : [1, 1, 1, 1], "metallicFactor" : 1, "roughnessFactor" : 1}, "emissiveFactor" : [0, 0, 0], "alphaMode" : "OPAQUE", "doubleSided" : false}], "meshes" : [{"primitives" : [{"attributes" : {"POSITION" : 1, "NORMAL" : 2, "COLOR_0" : 3}, "indices" : 0, "material" : 0, "mode" : 4}]}], "nodes" : [{"matrix" : [1, 0, 0, 0, 0, 1, 0, 0, 0, 0, 1, 0, 35.47244, 25.787401, 0.00894, 1], "mesh" : 0, "name" : "Node #0"}, {"matrix" : [1, 0, 0, 0, 0, 1, 0, 0, 0, 0, 1, 0, 35.47244, 25.787401, 0.00894, 1], "mesh" : 0, "name" : "Node #1"}, {"matrix" : [1, 0, 0, 0, 0, 1, 0, 0, 0, 0, 1, 0, 35.47244, 25.787401, 0.00894, 1], "mesh" : 0, "name" : "Node #2"}, {"matrix" : [1, 0, 0, 0, 0, 1, 0, 0, 0, 0, 1, 0, 35.47244, 25.787401, 0.00894, 1], "mesh" : 0, "name" : "Node #3"}, {"matrix" : [1, 0, 0, 0, 0, 1, 0, 0, 0, 0, 1, 0, 35.47244, 25.787401, 0.00894, 1], "mesh" : 0, "name" : "Node #4"}, {"matrix" : [1, 0, 0, 0, 0, 1, 0, 0, 0, 0, 1, 0, 35.47244, 25.787401, 0.00894, 1], "mesh" : 0, "name" : "Node #5"}, {"matrix" : [1, 0, 0, 0, 0, 1, 0, 0, 0, 0, 1, 0, 35.47244, 25.787401, 0.00894, 1], "mesh" : 0, "name" : "Node #6"}, {"matrix" : [1, 0, 0, 0, 0, 1, 0, 0, 0, 0, 1, 0, 35.47244, 25.787401, 0.00894, 1], "mesh" : 0, "name" : "Node #7"}, {"matrix" : [1, 0, 0, 0, 0, 1, 0, 0, 0, 0, 1, 0, 35.47244, 25.787401, 0.00894, 1], "mesh" : 0, "name" : "Node #8"}, {"matrix" : [1, 0, 0, 0, 0, 1, 0, 0, 0, 0, 1, 0, 35.47244, 25.787401, 0.00894, 1], "mesh" : 0, "name" : "Node #9"}, {"matrix" : [1, 0, 0, 0, 0, 1, 0, 0, 0, 0, 1, 0, 35.47244, 25.787401, 0.00894, 1], "mesh" : 0, "name" : "Node #10"}, {"matrix" : [1, 0, 0, 0, 0, 1, 0, 0, 0, 0, 1, 0, 35.47244, 25.787401, 0.00894, 1], "mesh" : 0, "name" : "Node #11"}, {"matrix" : [1, 0, 0, 0, 0, 1, 0, 0, 0, 0, 1, 0, 35.47244, 25.787401, 0.00894, 1], "mesh" : 0, "name" : "Node #12"}, {"matrix" : [1, 0, 0, 0, 0, 1, 0, 0, 0, 0, 1, 0, 35.47244, 25.787401, 0.00894, 1], "mesh" : 0, "name" : "Node #13"}, {"matrix" : [1, 0, 0, 0, 0, 1, 0, 0, 0, 0, 1, 0, 35.47244, 25.787401, 0.00894, 1], "mesh" : 0, "name" : "Node #14"}, {"matrix" : [1, 0, 0, 0, 0, 1, 0, 0, 0, 0, 1, 0, 35.47244, 25.787401, 0.00894, 1], "mesh" : 0, "name" : "Node #15"}, {"matrix" : [1, 0, 0, 0, 0, 1, 0, 0, 0, 0, 1, 0, 35.47244, 25.787401, 0.00894, 1], "mesh" : 0, "name" : "Node #16"}, {"matrix" : [1, 0, 0, 0, 0, 1, 0, 0, 0, 0, 1, 0, 35.47244, 25.787401, 0.00894, 1], "mesh" : 0, "name" : "Node #17"}, {"matrix" : [1, 0, 0, 0, 0, 1, 0, 0, 0, 0, 1, 0, 35.47244, 25.787401, 0.00894, 1], "mesh" : 0, "name" : "Node #18"}, {"matrix" : [1, 0, 0, 0, 0, 1, 0, 0, 0, 0, 1, 0, 35.47244, 25.787401, 0.00894, 1], "mesh" : 0, "name" : "Node #19"}, {"matrix" : [1, 0, 0, 0, 0, 1, 0, 0, 0, 0, 1, 0, 35.47244, 25.787401, 0.00894, 1], "mesh" : 0, "name" : "Node #20"}, {"matrix" : [1, 0, 0, 0, 0, 1, 0, 0, 0, 0, 1, 0, 35.47244, 25.787401, 0.00894, 1], "mesh" : 0, "name" : "Node #21"}, {"matrix" : [1, 0, 0, 0, 0, 1, 0, 0, 0, 0, 1, 0, 35.47244, 25.787401, 0.00894, 1], "mesh" : 0, "name" : "Node #22"}, {"matrix" : [1, 0, 0, 0, 0, 1, 0, 0, 0, 0, 1, 0, 35.47244, 25.787401, 0.00894, 1], "mesh" : 0, "name" : "Node #23"}, {"matrix" : [1, 0, 0, 0, 0, 1, 0, 0, 0, 0, 1, 0, 35.47244, 25.787401, 0.00894, 1], "mesh" : 0, "name" : "Node #24"}, {"matrix" : [1, 0, 0, 0, 0, 1, 0, 0, 0, 0, 1, 0, 35.47244, 25.787401, 0.00894, 1], "mesh" : 0, "name" : "Node #25"}, {"matrix" : [1, 0, 0, 0, 0, 1, 0, 0, 0, 0, 1, 0, 35.47244, 25.787401, 0.00894, 1], "mesh" : 0, "name" : "Node #26"}, {"matrix" : [1, 0, 0, 0, 0, 1, 0, 0, 0, 0, 1, 0, 35.47244, 25.787401, 0.00894, 1], "mesh" : 0, "name" : "Node #27"}, {"matrix" : [1, 0, 0, 0, 0, 1, 0, 0, 0, 0, 1, 0, 35.47244, 25.787401, 0.00894, 1], "mesh" : 0, "name" : "Node #28"}, {"matrix" : [1, 0, 0, 0, 0, 1, 0, 0, 0, 0, 1, 0, 35.47244, 25.787401, 0.00894, 1], "mesh" : 0, "name" : "Node #29"}, {"matrix" : [1, 0, 0, 0, 0, 1, 0, 0, 0, 0, 1, 0, 35.47244, 25.787401, 0.00894, 1], "mesh" : 0, "name" : "Node #30"}, {"matrix" : [1, 0, 0, 0, 0, 1, 0, 0, 0, 0, 1, 0, 35.47244, 25.787401, 0.00894, 1], "mesh" : 0, "name" : "Node #31"}, {"matrix" : [1, 0, 0, 0, 0, 1, 0, 0, 0, 0, 1, 0, 35.47244, 25.787401, 0.00894, 1], "mesh" : 0, "name" : "Node #32"}, {"matrix" : [1, 0, 0, 0, 0, 1, 0, 0, 0, 0, 1, 0, 35.47244, 25.787401, 0.00894, 1], "mesh" : 0, "name" : "Node #33"}, {"matrix" : [1, 0, 0, 0, 0, 1, 0, 0, 0, 0, 1, 0, 35.47244, 25.787401, 0.00894, 1], "mesh" : 0, "name" : "Node #34"}, {"matrix" : [1, 0, 0, 0, 0, 1, 0, 0, 0, 0, 1, 0, 35.47244, 25.787401, 0.00894, 1], "mesh" : 0, "name" : "Node #35"}, {"matrix" : [1, 0, 0, 0, 0, 1, 0, 0, 0, 0, 1, 0, 35.47244, 25.787401, 0.00894, 1], "mesh" : 0, "name" : "Node #36"}, {"matrix" : [1, 0, 0, 0, 0, 1, 0, 0, 0, 0, 1, 0, 35.47244, 25.787401, 0.00894, 1], "mesh" : 0, "name" : "Node #37"}, {"matrix" : [1, 0, 0, 0, 0, 1, 0, 0, 0, 0, 1, 0, 35.47244, 25.787401, 0.00894, 1], "mesh" : 0, "name" : "Node #38"}, {"matrix" : [1, 0, 0, 0, 0, 1, 0, 0, 0, 0, 1, 0, 35.47244, 25.787401, 0.00894, 1], "mesh" : 0, "name" : "Node #39"}, {"matrix" : [1, 0, 0, 0, 0, 1, 0, 0, 0, 0, 1, 0, 35.47244, 25.787401, 0.00894, 1], "mesh" : 0, "name" : "Node #40"}, {"matrix" : [1, 0, 0, 0, 0, 1, 0, 0, 0, 0, 1, 0, 35.47244, 25.787401, 0.00894, 1], "mesh" : 0, "name" : "Node #41"}, {"matrix" : [1, 0, 0, 0, 0, 1, 0, 0, 0, 0, 1, 0, 35.47244, 25.787401, 0.00894, 1], "mesh" : 0, "name" : "Node #42"}, {"matrix" : [1, 0, 0, 0, 0, 1, 0, 0, 0, 0, 1, 0, 35.47244, 25.787401, 0.00894, 1], "mesh" : 0, "name" : "Node #43"}, {"matrix" : [1, 0, 0, 0, 0, 1, 0, 0, 0, 0, 1, 0, 35.47244, 25.787401, 0.00894, 1], "mesh" : 0, "name" : "Node #44"}, {"matrix" : [1, 0, 0, 0, 0, 1, 0, 0, 0, 0, 1, 0, 35.47244, 25.787401, 0.00894, 1], "mesh" : 0, "name" : "Node #45"}, {"matrix" : [1, 0, 0, 0, 0, 1, 0, 0, 0, 0, 1, 0, 35.47244, 25.787401, 0.00894, 1], "mesh" : 0, "name" : "Node #46"}, {"matrix" : [1, 0, 0, 0, 0, 1, 0, 0, 0, 0, 1, 0, 35.47244, 25.787401, 0.00894, 1], "mesh" : 0, "name" : "Node #47"}, {"matrix" : [1, 0, 0, 0, 0, 1, 0, 0, 0, 0, 1, 0, 35.47244, 25.787401, 0.00894, 1], "mesh" : 0, "name" : "Node #48"}, {"matrix" : [1, 0, 0, 0, 0, 1, 0, 0, 0, 0, 1, 0, 35.47244, 25.787401, 0.00894, 1], "mesh" : 0, "name" : "Node #49"}, {"matrix" : [1, 0, 0, 0, 0, 1, 0, 0, 0, 0, 1, 0, 35.47244, 25.787401, 0.00894, 1], "mesh" : 0, "name" : "Node #50"}, {"matrix" : [1, 0, 0, 0, 0, 1, 0, 0, 0, 0, 1, 0, 35.47244, 25.787401, 0.00894, 1], "mesh" : 0, "name" : "Node #51"}, {"matrix" : [1, 0, 0, 0, 0, 1, 0, 0, 0, 0, 1, 0, 35.47244, 25.787401, 0.00894, 1], "mesh" : 0, "name" : "Node #52"}, {"matrix" : [1, 0, 0, 0, 0, 1, 0, 0, 0, 0, 1, 0, 35.47244, 25.787401, 0.00894, 1], "mesh" : 0, "name" : "Node #53"}, {"matrix" : [1, 0, 0, 0, 0, 1, 0, 0, 0, 0, 1, 0, 35.47244, 25.787401, 0.00894, 1], "mesh" : 0, "name" : "Node #54"}, {"matrix" : [1, 0, 0, 0, 0, 1, 0, 0, 0, 0, 1, 0, 35.47244, 25.787401, 0.00894, 1], "mesh" : 0, "name" : "Node #55"}, {"matrix" : [1, 0, 0, 0, 0, 1, 0, 0, 0, 0, 1, 0, 35.47244, 25.787401, 0.00894, 1], "mesh" : 0, "name" : "Node #56"}, {"matrix" : [1, 0, 0, 0, 0, 1, 0, 0, 0, 0, 1, 0, 35.47244, 25.787401, 0.00894, 1], "mesh" : 0, "name" : "Node #57"}, {"matrix" : [1, 0, 0, 0, 0, 1, 0, 0, 0, 0, 1, 0, 35.47244, 25.787401, 0.00894, 1], "mesh" : 0, "name" : "Node #58"}, {"matrix" : [1, 0, 0, 0, 0, 1, 0, 0, 0, 0, 1, 0, 35.47244, 25.787401, 0.00894, 1], "mesh" : 0, "name" : "Node #59"}, {"matrix" : [1, 0, 0, 0, 0, 1, 0, 0, 0, 0, 1, 0, 35.47244, 25.787401, 0.00894, 1], "mesh" : 0, "name" : "Node #60"}, {"matrix" : [1, 0, 0, 0, 0, 1, 0, 0, 0, 0, 1, 0, 35.47244, 25.787401, 0.00894, 1], "mesh" : 0, "name" : "Node #61"}, {"matrix" : [1, 0, 0, 0, 0, 1, 0, 0, 0, 0, 1, 0, 35.47244, 25.787401, 0.00894, 1], "mesh" : 0, "name" : "Node #62"}, {"matrix" : [1, 0, 0, 0, 0, 1, 0, 0, 0, 0, 1, 0, 35.47244, 25.787401, 0.00894, 1], "mesh" : 0, "name" : "Node #63"}, {"matrix" : [1, 0, 0, 0, 0, 1, 0, 0, 0, 0, 1, 0, 35.47244, 25.787401, 0.00894, 1], "mesh" : 0, "name" : "Node #64"}, {"matrix" : [1, 0, 0, 0, 0, 1, 0, 0, 0, 0, 1, 0, 35.47244, 25.787401, 0.00894, 1], "mesh" : 0, "name" : "Node #65"}, {"matrix" : [1, 0, 0, 0, 0, 1, 0, 0, 0, 0, 1, 0, 35.47244, 25.787401, 0.00894, 1], "mesh" : 0, "name" : "Node #66"}], "scene" : 0, "scenes" : [{"nodes" : [0, 1, 2, 3, 4, 5, 6, 7, 8, 9, 10, 11, 12, 13, 14, 15, 16, 17, 18, 19, 20, 21, 22, 23, 24, 25, 26, 27, 28, 29, 30, 31, 32, 33, 34, 35, 36, 37, 38, 39, 40, 41, 42, 43, 44, 45, 46, 47, 48, 49, 50, 51, 52, 53, 54, 55, 56, 57, 58, 59, 60, 61, 62, 63, 64, 65, 66]}]}